PathFileType	4	(X/Y/Z)	/Users/niels/Desktop/University/Third Semester/Perception and Action/Exam/Gymnastics Motion Tracking/Code for Gym Tracking/Analyzed Data/Webcam_Backflip/id4_3_baseline_Sports2D/id4_3_baseline_Sports2D_px_person00.trc
DataRate	CameraRate	NumFrames	NumMarkers	Units	OrigDataRate	OrigDataStartFrame	OrigNumFrames
29.8125	29.8125	7	22	m	29.8125	120	160
Frame#	Time	Hip			RHip			RKnee			RAnkle			RBigToe			RSmallToe			RHeel			LHip			LKnee			LAnkle			LBigToe			LSmallToe			LHeel			Neck			Head			Nose			RShoulder			RElbow			RWrist			LShoulder			LElbow			LWrist		
		X1	Y1	Z1	X2	Y2	Z2	X3	Y3	Z3	X4	Y4	Z4	X5	Y5	Z5	X6	Y6	Z6	X7	Y7	Z7	X8	Y8	Z8	X9	Y9	Z9	X10	Y10	Z10	X11	Y11	Z11	X12	Y12	Z12	X13	Y13	Z13	X14	Y14	Z14	X15	Y15	Z15	X16	Y16	Z16	X17	Y17	Z17	X18	Y18	Z18	X19	Y19	Z19	X20	Y20	Z20	X21	Y21	Z21	X22	Y22	Z22
120	4.025157232704402	0.9235508202623604	-0.5569844775605121	0.0	0.9189083596337569	-0.554544040382274	0.0	0.9290654823112914	-0.6661885022897227	0.0	0.917175898522977	-0.7757641166391134	0.0	0.9581142010408147	-0.7961298631429133	0.0	0.9499616193790783	-0.7987807881535615	0.0	0.9092471649457068	-0.7952112569388936	0.0	0.9320088597200438	-0.5547972169682388	0.0	0.9309612653915461	-0.6650408375832245	0.0	0.9191868843906184	-0.7731447602353625	0.0	0.9614980679760187	-0.794035974133007	0.0	0.9555383920040141	-0.7919537527875448	0.0	0.9098754051473014	-0.7897312775809725	0.0	0.9348374666174302	-0.4088032922017554	0.0	0.9659713065941606	-0.33942798838843274	0.0	0.9681193118014898	-0.3807055311473326	0.0	0.9169151636688382	-0.42206874190405136	0.0	0.917907096269991	-0.4924109689827998	0.0	0.9758743479655944	-0.47444228453195153	0.0	0.9362486740187212	-0.4274246768268846	0.0	0.9403198693902776	-0.488243907039495	0.0	0.9979035682985492	-0.4903916121222692	0.0
121	4.058700209643606	0.9235660107290874	-0.5523727003485542	0.0	0.9191746647707428	-0.5501157696646178	0.0	0.9293562402367348	-0.6623119422025213	0.0	0.9169317207004926	-0.771358036130367	0.0	0.9591175541121931	-0.7921017370871895	0.0	0.9503944973135598	-0.7948406733965927	0.0	0.9087719835508085	-0.7909128775416346	0.0	0.9312808419362214	-0.5502558378821703	0.0	0.9311710707238064	-0.6609980153468024	0.0	0.9189655814686108	-0.7692534650362635	0.0	0.9629901242564614	-0.7901302332299601	0.0	0.9566589978376621	-0.7878754073180687	0.0	0.9094774829540312	-0.7859230005708847	0.0	0.9355500636484336	-0.40289324417674055	0.0	0.9638810330646297	-0.3340131399683728	0.0	0.9669555637382266	-0.37448447975733834	0.0	0.9175384836976828	-0.41786471335055975	0.0	0.9116156879118026	-0.49212296172605413	0.0	0.9707990806455589	-0.4892146240007946	0.0	0.9371248294433611	-0.4225967468832334	0.0	0.9361257553063131	-0.4865331387518725	0.0	0.9912011924456957	-0.49866729441989716	0.0
122	4.092243186582809	0.9237425771930461	-0.5497350600836214	0.0	0.9194421193907707	-0.5477537103317364	0.0	0.9296519409185715	-0.6603357206982625	0.0	0.9167065494201455	-0.7686653206808675	0.0	0.9594774660007374	-0.7894615014267239	0.0	0.9499951408675988	-0.7923697919277608	0.0	0.9087008489604401	-0.7880820094195988	0.0	0.9302843594707235	-0.5476746606410204	0.0	0.9312953905736714	-0.6589058715458295	0.0	0.9186595232979123	-0.7669094196826993	0.0	0.9635824038859567	-0.7877809599489451	0.0	0.9570081248802739	-0.7852877139199467	0.0	0.9090356468162807	-0.7835537349535717	0.0	0.9358497327758908	-0.398858257262313	0.0	0.961555266707038	-0.33053136611172507	0.0	0.9654286555895237	-0.3699987952985782	0.0	0.917941430797335	-0.41541332453614327	0.0	0.9072087925918078	-0.4915980097486419	0.0	0.9641280309165347	-0.5043142159227902	0.0	0.9375786798988646	-0.4194621874894563	0.0	0.9336622439437932	-0.48472952024338906	0.0	0.9843888945620461	-0.5058697679168818	0.0
123	4.125786163522012	0.9242714072282209	-0.5493290551437156	0.0	0.9198166221099962	-0.5476787262026646	0.0	0.9298885094815991	-0.6603032490536725	0.0	0.9165872936282136	-0.7678674366676131	0.0	0.9588371324814368	-0.7885560547691115	0.0	0.948521480280417	-0.7916474120823687	0.0	0.9090853076849312	-0.7869756520555672	0.0	0.9294216788922172	-0.5473381326618244	0.0	0.9313294388253347	-0.6589073550321304	0.0	0.9183584824875836	-0.7662518197339601	0.0	0.9630047469673992	-0.7872939928936782	0.0	0.9564834597085669	-0.7845630156690758	0.0	0.9086271609651443	-0.7827971720579513	0.0	0.9358511949318665	-0.3970879034670927	0.0	0.9592869843133806	-0.32917731871167816	0.0	0.963820119082571	-0.36762348444858284	0.0	0.9181561958750584	-0.4150045165391381	0.0	0.9046159931368633	-0.4919057633007472	0.0	0.955752843141367	-0.5197099440946473	0.0	0.9376126193091454	-0.4183893815011274	0.0	0.9323885069517358	-0.4838400940600325	0.0	0.97744711853355	-0.5126510713619081	0.0
124	4.159329140461216	0.925311160387075	-0.5511829620515297	0.0	0.9204762987919144	-0.5499117265684659	0.0	0.930024866646325	-0.6621175831026617	0.0	0.9165601636801189	-0.7689835404441401	0.0	0.9569928639496657	-0.789583244819905	0.0	0.9460041239249046	-0.7927675739428283	0.0	0.9097185482113999	-0.7876605416158962	0.0	0.9292018007962487	-0.5492759009576808	0.0	0.9313047129900258	-0.6609319430203249	0.0	0.9181052707286567	-0.7673297008994558	0.0	0.9612105861690765	-0.7887219874430442	0.0	0.9551149228967215	-0.7857973990167035	0.0	0.9082430102178358	-0.7836660694899426	0.0	0.9356985829565412	-0.3976737069552174	0.0	0.9572953891684549	-0.3299810867602686	0.0	0.9623402676912421	-0.3675095745772479	0.0	0.9182789743583167	-0.41673485866156745	0.0	0.9035819996437015	-0.49371312128485595	0.0	0.9459885324040846	-0.5352038008067251	0.0	0.9372950854088149	-0.4194812903135751	0.0	0.9316216604081985	-0.4845667629106952	0.0	0.9704509352602124	-0.5196410628584895	0.0
125	4.192872117400419	0.9268816968134914	-0.5550604982488292	0.0	0.9215446163459854	-0.5542408354060633	0.0	0.9300548330392759	-0.6655730059755038	0.0	0.9165444141710837	-0.7719019101980121	0.0	0.9540938343700759	-0.7925297241373835	0.0	0.9427966209880249	-0.7956328099973681	0.0	0.9102738506755269	-0.790014471409407	0.0	0.9299976521175628	-0.5532729360023646	0.0	0.9312987097736443	-0.6647315200152675	0.0	0.9178954156115131	-0.7701060252599711	0.0	0.9585215922047369	-0.7918494221607946	0.0	0.9531430481488145	-0.788800454847965	0.0	0.9078497575309521	-0.7860612199828	0.0	0.9355284052271889	-0.40040062089576167	0.0	0.9556847137487412	-0.33281753890473037	0.0	0.9611236197316237	-0.3695855757080113	0.0	0.9184066829277772	-0.42049698855808826	0.0	0.9037060796566877	-0.4972617689324748	0.0	0.9354850854847324	-0.550392703776181	0.0	0.936768601244341	-0.4225922256953831	0.0	0.9310141024229169	-0.4872879282270901	0.0	0.9639248077120943	-0.5274406821666491	0.0
126	4.226415094339622	0.9288148265651691	-0.5605200751332309	0.0	0.9230070322771142	-0.5602381646038541	0.0	0.9300277482513296	-0.6703413841582707	0.0	0.9164788685950611	-0.7763314668490051	0.0	0.9506062420937994	-0.7970460396868232	0.0	0.939408836689772	-0.799890634780553	0.0	0.9105317541433675	-0.7937107582870824	0.0	0.9317300579616005	-0.558919780038619	0.0	0.9314046010972784	-0.6698895211078305	0.0	0.9176967129445037	-0.7743577286508667	0.0	0.955537632493158	-0.7962559989364829	0.0	0.9509637335814995	-0.7931343695379367	0.0	0.9074303232927335	-0.7897528828098977	0.0	0.9354392652789544	-0.4048725639372198	0.0	0.9544970196956645	-0.33739695587909097	0.0	0.9602021962704603	-0.3735868634213535	0.0	0.9185975579141243	-0.42598402658325296	0.0	0.9044997439995199	-0.5024398229225783	0.0	0.9250770068834997	-0.5647295668712038	0.0	0.9362062309739141	-0.4273818779449924	0.0	0.9306131669065617	-0.49199035361960647	0.0	0.9586428626020381	-0.5363870390386067	0.0
